<svg width="1440" height="1185" viewBox="0 0 1440 1185" fill="none" xmlns="http://www.w3.org/2000/svg">
<mask id="mask0_22_1093" style="mask-type:alpha" maskUnits="userSpaceOnUse" x="-274" y="0" width="2125" height="1967">
<rect x="-273.828" y="1106.75" width="1850.55" height="1072.34" transform="rotate(-36.7316 -273.828 1106.75)" fill="#1A1A1A"/>
</mask>
<g mask="url(#mask0_22_1093)">
<g style="mix-blend-mode:soft-light">
<path d="M-388.387 182.208L1325.96 -654.932L-219.451 513.295L-388.387 182.208ZM-845.218 987.992L-219.91 515.3L466.163 1859.9L-845.218 987.992Z" stroke="url(#paint0_linear_22_1093)" stroke-width="1.31899"/>
<path d="M-415.024 224.838L1258.54 -687.845L-230.775 548.017L-415.024 224.838ZM-833.752 1050.1L-231.138 550.038L517.127 1862.52L-833.752 1050.1Z" stroke="url(#paint1_linear_22_1093)" stroke-width="1.31899"/>
<path d="M-439.28 267.933L1190.71 -717.283L-240.326 582.663L-439.28 267.933ZM-819.63 1110.69L-240.597 584.7L567.387 1862.87L-819.63 1110.69Z" stroke="url(#paint2_linear_22_1093)" stroke-width="1.31899"/>
<path d="M-461.661 312.321L1121.16 -743.856L-248.319 617.908L-461.661 312.321ZM-802.621 1170.96L-248.495 619.955L617.925 1861L-802.621 1170.96Z" stroke="url(#paint3_linear_22_1093)" stroke-width="1.31899"/>
<path d="M-480.373 353.876L1056.33 -765.518L-254.211 650.524L-480.373 353.876ZM-784.574 1225.54L-254.3 652.575L664.177 1857.31L-784.574 1225.54Z" stroke="url(#paint4_linear_22_1093)" stroke-width="1.31899"/>
<path d="M-496.508 394.045L993.882 -783.65L-258.522 681.72L-496.508 394.045ZM-765.282 1276.7L-258.53 683.774L707.965 1852.07L-765.282 1276.7Z" stroke="url(#paint5_linear_22_1093)" stroke-width="1.31899"/>
<path d="M-510.244 432.522L934.284 -798.545L-261.434 711.313L-510.244 432.522ZM-745.176 1324.29L-261.363 713.366L749.093 1845.58L-745.176 1324.29Z" stroke="url(#paint6_linear_22_1093)" stroke-width="1.31899"/>
<path d="M-524.816 479.433L861.869 -813.577L-263.44 747.022L-524.816 479.433ZM-718.598 1380.52L-263.274 749.069L798.214 1835.79L-718.598 1380.52Z" stroke="url(#paint7_linear_22_1093)" stroke-width="1.31899"/>
<path d="M-537.69 528.929L785.775 -825.85L-263.781 784.276L-537.69 528.929ZM-688.192 1437.8L-263.519 786.312L848.861 1823.31L-688.192 1437.8Z" stroke="url(#paint8_linear_22_1093)" stroke-width="1.31899"/>
<path d="M-547.396 574.753L715.599 -834.029L-262.529 818.392L-547.396 574.753ZM-657.95 1489.02L-262.179 820.415L894.704 1809.86L-657.95 1489.02Z" stroke="url(#paint9_linear_22_1093)" stroke-width="1.31899"/>
<path d="M-554.942 619.912L646.676 -839.186L-259.863 851.669L-554.942 619.912ZM-626.231 1537.83L-259.428 853.676L938.924 1794.87L-626.231 1537.83Z" stroke="url(#paint10_linear_22_1093)" stroke-width="1.31899"/>
<path d="M-561.073 670.712L569.468 -841.584L-255.195 888.711L-561.073 670.712ZM-588.34 1590.81L-254.665 890.697L987.539 1776.01L-588.34 1590.81Z" stroke="url(#paint11_linear_22_1093)" stroke-width="1.31899"/>
<path d="M-564.388 714.373L503.315 -840.851L-249.793 920.21L-564.388 714.373ZM-553.905 1634.73L-249.183 922.174L1028.41 1758.1L-553.905 1634.73Z" stroke="url(#paint12_linear_22_1093)" stroke-width="1.31899"/>
<path d="M-565.909 757.957L437.493 -837.546L-243.135 951.35L-565.909 757.957ZM-517.839 1677.11L-242.446 953.289L1068.37 1738.68L-517.839 1677.11Z" stroke="url(#paint13_linear_22_1093)" stroke-width="1.31899"/>
<path d="M-565.601 803.325L369.205 -831.388L-234.862 983.445L-565.601 803.325ZM-478.507 1719.66L-234.091 985.354L1109.07 1716.84L-478.507 1719.66Z" stroke="url(#paint14_linear_22_1093)" stroke-width="1.31899"/>
<path d="M-563.288 849.689L299.662 -822.225L-224.989 1015.91L-563.288 849.689ZM-436.419 1761.52L-224.136 1017.78L1149.72 1692.8L-436.419 1761.52Z" stroke="url(#paint15_linear_22_1093)" stroke-width="1.31899"/>
<path d="M-557.492 908.035L212.493 -806.548L-210.518 1056.27L-557.492 908.035ZM-380.722 1811.81L-209.565 1058.1L1199.51 1660.07L-380.722 1811.81Z" stroke="url(#paint16_linear_22_1093)" stroke-width="1.31899"/>
<path d="M-548.995 963.251L130.365 -787.377L-194.689 1093.95L-548.995 963.251ZM-325.164 1856.94L-193.642 1095.73L1245.21 1626.51L-325.164 1856.94Z" stroke="url(#paint17_linear_22_1093)" stroke-width="1.31899"/>
<path d="M-538.28 1015.16L53.4806 -765.435L-177.873 1128.92L-538.28 1015.16ZM-270.35 1897.12L-176.741 1130.65L1286.88 1592.62L-270.35 1897.12Z" stroke="url(#paint18_linear_22_1093)" stroke-width="1.31899"/>
<path d="M-525.793 1063.69L-18.1001 -741.375L-160.401 1161.19L-525.793 1063.69ZM-216.765 1932.67L-159.19 1162.87L1324.68 1558.81L-216.765 1932.67Z" stroke="url(#paint19_linear_22_1093)" stroke-width="1.31899"/>
<path d="M-511.647 1109.8L-85.8369 -715.234L-142.182 1191.47L-511.647 1109.8ZM-163.694 1964.56L-140.897 1193.09L1359.51 1524.72L-163.694 1964.56Z" stroke="url(#paint20_linear_22_1093)" stroke-width="1.31899"/>
<path d="M-494.619 1157.38L-155.427 -684.769L-121.659 1222.29L-494.619 1157.38ZM-106.636 1995.46L-120.299 1223.85L1394.29 1487.47L-106.636 1995.46Z" stroke="url(#paint21_linear_22_1093)" stroke-width="1.31899"/>
<path d="M-476.863 1200.7L-218.524 -653.785L-101.376 1249.98L-476.863 1200.7ZM-52.5498 2021.76L-99.9485 1251.48L1424.91 1451.61L-52.5498 2021.76Z" stroke="url(#paint22_linear_22_1093)" stroke-width="1.31899"/>
<path d="M-456.107 1245.51L-283.515 -618.31L-78.6972 1278.21L-456.107 1245.51ZM5.66583 2047L-77.204 1279.66L1455.45 1412.46L5.66583 2047Z" stroke="url(#paint23_linear_22_1093)" stroke-width="1.31899"/>
<path d="M-434.247 1287.65L-344.346 -581.581L-55.7128 1304.37L-434.247 1287.65ZM62.6262 2068.81L-54.1569 1305.75L1483.06 1373.63L62.6262 2068.81Z" stroke="url(#paint24_linear_22_1093)" stroke-width="1.31899"/>
<path d="M-414.165 1322.79L-394.837 -548.287L-35.2316 1325.86L-414.165 1322.79ZM111.873 2085.48L-33.6255 1327.19L1505.21 1339.67L111.873 2085.48Z" stroke="url(#paint25_linear_22_1093)" stroke-width="1.31899"/>
<path d="M-391.809 1358.66L-446.165 -511.634L-13.0073 1347.49L-391.809 1358.66ZM163.905 2100.96L-11.3509 1348.75L1526.94 1303.4L163.905 2100.96Z" stroke="url(#paint26_linear_22_1093)" stroke-width="1.31899"/>
<path d="M-359.59 1405.46L-512.754 -459.423L18.1508 1375.19L-359.59 1405.46ZM234.676 2118.66L19.871 1376.37L1553.86 1253.46L234.676 2118.66Z" stroke="url(#paint27_linear_22_1093)" stroke-width="1.31899"/>
<path d="M-333.015 1440.48L-562.284 -416.812L43.2149 1395.5L-333.015 1440.48ZM289.968 2129.88L44.9823 1396.61L1572.83 1213.97L289.968 2129.88Z" stroke="url(#paint28_linear_22_1093)" stroke-width="1.31899"/>
<path d="M-306.024 1473.27L-608.409 -373.889L68.178 1414.16L-306.024 1473.27ZM343.735 2138.65L69.9875 1415.21L1589.6 1175.18L343.735 2138.65Z" stroke="url(#paint29_linear_22_1093)" stroke-width="1.31899"/>
<path d="M-272.235 1510.94L-661.06 -320.57L98.8289 1435.13L-272.235 1510.94ZM408.137 2146.45L100.685 1436.09L1607.55 1128.24L408.137 2146.45Z" stroke="url(#paint30_linear_22_1093)" stroke-width="1.31899"/>
<path d="M-238.438 1545.37L-708.836 -267.655L128.911 1453.8L-238.438 1545.37ZM469.761 2151.18L130.809 1454.68L1622.58 1082.82L469.761 2151.18Z" stroke="url(#paint31_linear_22_1093)" stroke-width="1.31899"/>
<path d="M-209.791 1572.32L-745.978 -223.077L154.012 1468.04L-209.791 1572.32ZM520.076 2153.08L155.94 1468.86L1633.32 1045.38L520.076 2153.08Z" stroke="url(#paint32_linear_22_1093)" stroke-width="1.31899"/>
<path d="M-181.929 1596.78L-779.445 -179.947L178.114 1480.65L-181.929 1596.78ZM567.498 2153.28L180.07 1481.4L1642.18 1009.81L567.498 2153.28Z" stroke="url(#paint33_linear_22_1093)" stroke-width="1.31899"/>
<path d="M-151.454 1621.72L-813.332 -132.998L204.156 1493.16L-151.454 1621.72ZM617.812 2151.79L206.137 1493.84L1650.24 971.763L617.812 2151.79Z" stroke="url(#paint34_linear_22_1093)" stroke-width="1.31899"/>
<path d="M-120.647 1645.18L-844.94 -85.7548L230.167 1504.56L-120.647 1645.18ZM667.16 2148.62L232.172 1505.17L1656.8 934.133L667.16 2148.62Z" stroke="url(#paint35_linear_22_1093)" stroke-width="1.31899"/>
<path d="M-86.7986 1669.08L-876.847 -34.0907L258.415 1515.76L-86.7986 1669.08ZM719.768 2143.37L260.443 1516.3L1662.33 893.686L719.768 2143.37Z" stroke="url(#paint36_linear_22_1093)" stroke-width="1.31899"/>
<path d="M-57.6894 1688.18L-902.097 10.1602L282.45 1524.36L-57.6894 1688.18ZM763.76 2137.48L284.493 1524.84L1665.77 859.586L763.76 2137.48Z" stroke="url(#paint37_linear_22_1093)" stroke-width="1.31899"/>
<path d="M-24.008 1708.71L-928.948 61.1664L309.981 1533.2L-24.008 1708.71ZM813.311 2129.19L312.041 1533.61L1668.34 820.881L813.311 2129.19Z" stroke="url(#paint38_linear_22_1093)" stroke-width="1.31899"/>
<path d="M9.6284 1727.64L-953.403 111.901L337.197 1540.91L9.6284 1727.64ZM861.445 2119.43L339.271 1541.25L1669.5 782.97L861.445 2119.43Z" stroke="url(#paint39_linear_22_1093)" stroke-width="1.31899"/>
<path d="M48.8184 1747.84L-979.083 170.783L368.575 1548.58L48.8184 1747.84ZM915.923 2106.3L370.66 1548.84L1669.17 739.692L915.923 2106.3Z" stroke="url(#paint40_linear_22_1093)" stroke-width="1.31899"/>
<path d="M85.8227 1765.17L-1000.73 226.161L397.896 1554.6L85.8227 1765.17ZM965.872 2092.26L399.991 1554.78L1667.3 699.651L965.872 2092.26Z" stroke="url(#paint41_linear_22_1093)" stroke-width="1.31899"/>
<path d="M129.666 1783.65L-1023.27 291.513L432.271 1560.26L129.666 1783.65ZM1023.28 2073.7L434.371 1560.36L1663.23 653.185L1023.28 2073.7Z" stroke="url(#paint42_linear_22_1093)" stroke-width="1.31899"/>
<path d="M171.014 1799.15L-1041.6 352.903L464.344 1564.23L171.014 1799.15ZM1075.75 2054.35L466.447 1564.25L1657.64 610.291L1075.75 2054.35Z" stroke="url(#paint43_linear_22_1093)" stroke-width="1.31899"/>
<path d="M222.909 1816.05L-1060.79 429.628L504.149 1567.42L222.909 1816.05ZM1139.42 2027.68L506.249 1567.33L1648.34 557.657L1139.42 2027.68Z" stroke="url(#paint44_linear_22_1093)" stroke-width="1.31899"/>
</g>
</g>
<defs>
<linearGradient id="paint0_linear_22_1093" x1="980.84" y1="1611.35" x2="153.416" y2="-83.0958" gradientUnits="userSpaceOnUse">
<stop stop-color="white"/>
<stop offset="1" stop-color="white" stop-opacity="0"/>
</linearGradient>
<linearGradient id="paint1_linear_22_1093" x1="1019.69" y1="1591.29" x2="116.117" y2="-65.5721" gradientUnits="userSpaceOnUse">
<stop stop-color="white"/>
<stop offset="1" stop-color="white" stop-opacity="0"/>
</linearGradient>
<linearGradient id="paint2_linear_22_1093" x1="1057" y1="1569.86" x2="79.9275" y2="-46.6628" gradientUnits="userSpaceOnUse">
<stop stop-color="white"/>
<stop offset="1" stop-color="white" stop-opacity="0"/>
</linearGradient>
<linearGradient id="paint3_linear_22_1093" x1="1093.5" y1="1546.66" x2="44.125" y2="-25.9715" gradientUnits="userSpaceOnUse">
<stop stop-color="white"/>
<stop offset="1" stop-color="white" stop-opacity="0"/>
</linearGradient>
<linearGradient id="paint4_linear_22_1093" x1="1126.02" y1="1523.98" x2="11.8736" y2="-5.51439" gradientUnits="userSpaceOnUse">
<stop stop-color="white"/>
<stop offset="1" stop-color="white" stop-opacity="0"/>
</linearGradient>
<linearGradient id="paint5_linear_22_1093" x1="1156.02" y1="1501.22" x2="-18.192" y2="15.2396" gradientUnits="userSpaceOnUse">
<stop stop-color="white"/>
<stop offset="1" stop-color="white" stop-opacity="0"/>
</linearGradient>
<linearGradient id="paint6_linear_22_1093" x1="1183.48" y1="1478.68" x2="-46.0021" y2="36.0122" gradientUnits="userSpaceOnUse">
<stop stop-color="white"/>
<stop offset="1" stop-color="white" stop-opacity="0"/>
</linearGradient>
<linearGradient id="paint7_linear_22_1093" x1="1215.36" y1="1450.26" x2="-78.6507" y2="62.5013" gradientUnits="userSpaceOnUse">
<stop stop-color="white"/>
<stop offset="1" stop-color="white" stop-opacity="0"/>
</linearGradient>
<linearGradient id="paint8_linear_22_1093" x1="1247.15" y1="1419.2" x2="-111.621" y2="91.8314" gradientUnits="userSpaceOnUse">
<stop stop-color="white"/>
<stop offset="1" stop-color="white" stop-opacity="0"/>
</linearGradient>
<linearGradient id="paint9_linear_22_1093" x1="1274.95" y1="1389.5" x2="-140.811" y2="120.242" gradientUnits="userSpaceOnUse">
<stop stop-color="white"/>
<stop offset="1" stop-color="white" stop-opacity="0"/>
</linearGradient>
<linearGradient id="paint10_linear_22_1093" x1="1300.86" y1="1359.35" x2="-168.334" y2="149.419" gradientUnits="userSpaceOnUse">
<stop stop-color="white"/>
<stop offset="1" stop-color="white" stop-opacity="0"/>
</linearGradient>
<linearGradient id="paint11_linear_22_1093" x1="1328.26" y1="1324.47" x2="-197.79" y2="183.648" gradientUnits="userSpaceOnUse">
<stop stop-color="white"/>
<stop offset="1" stop-color="white" stop-opacity="0"/>
</linearGradient>
<linearGradient id="paint12_linear_22_1093" x1="1350.37" y1="1293.61" x2="-221.844" y2="214.247" gradientUnits="userSpaceOnUse">
<stop stop-color="white"/>
<stop offset="1" stop-color="white" stop-opacity="0"/>
</linearGradient>
<linearGradient id="paint13_linear_22_1093" x1="1371.12" y1="1262.04" x2="-244.659" y2="245.89" gradientUnits="userSpaceOnUse">
<stop stop-color="white"/>
<stop offset="1" stop-color="white" stop-opacity="0"/>
</linearGradient>
<linearGradient id="paint14_linear_22_1093" x1="1391.32" y1="1228.37" x2="-267.104" y2="280" gradientUnits="userSpaceOnUse">
<stop stop-color="white"/>
<stop offset="1" stop-color="white" stop-opacity="0"/>
</linearGradient>
<linearGradient id="paint15_linear_22_1093" x1="1410.5" y1="1193.1" x2="-288.627" y2="316.099" gradientUnits="userSpaceOnUse">
<stop stop-color="white"/>
<stop offset="1" stop-color="white" stop-opacity="0"/>
</linearGradient>
<linearGradient id="paint16_linear_22_1093" x1="1432.5" y1="1147.47" x2="-313.602" y2="363.325" gradientUnits="userSpaceOnUse">
<stop stop-color="white"/>
<stop offset="1" stop-color="white" stop-opacity="0"/>
</linearGradient>
<linearGradient id="paint17_linear_22_1093" x1="1451.11" y1="1102.99" x2="-334.963" y2="409.879" gradientUnits="userSpaceOnUse">
<stop stop-color="white"/>
<stop offset="1" stop-color="white" stop-opacity="0"/>
</linearGradient>
<linearGradient id="paint18_linear_22_1093" x1="1466.58" y1="1060.01" x2="-352.923" y2="455.318" gradientUnits="userSpaceOnUse">
<stop stop-color="white"/>
<stop offset="1" stop-color="white" stop-opacity="0"/>
</linearGradient>
<linearGradient id="paint19_linear_22_1093" x1="1479.23" y1="1018.76" x2="-367.738" y2="499.284" gradientUnits="userSpaceOnUse">
<stop stop-color="white"/>
<stop offset="1" stop-color="white" stop-opacity="0"/>
</linearGradient>
<linearGradient id="paint20_linear_22_1093" x1="1489.56" y1="978.587" x2="-379.946" y2="542.402" gradientUnits="userSpaceOnUse">
<stop stop-color="white"/>
<stop offset="1" stop-color="white" stop-opacity="0"/>
</linearGradient>
<linearGradient id="paint21_linear_22_1093" x1="1498.42" y1="936.095" x2="-390.509" y2="588.288" gradientUnits="userSpaceOnUse">
<stop stop-color="white"/>
<stop offset="1" stop-color="white" stop-opacity="0"/>
</linearGradient>
<linearGradient id="paint22_linear_22_1093" x1="1504.83" y1="896.436" x2="-398.219" y2="631.331" gradientUnits="userSpaceOnUse">
<stop stop-color="white"/>
<stop offset="1" stop-color="white" stop-opacity="0"/>
</linearGradient>
<linearGradient id="paint23_linear_22_1093" x1="1509.71" y1="854.376" x2="-404.144" y2="677.15" gradientUnits="userSpaceOnUse">
<stop stop-color="white"/>
<stop offset="1" stop-color="white" stop-opacity="0"/>
</linearGradient>
<linearGradient id="paint24_linear_22_1093" x1="1512.56" y1="813.82" x2="-407.681" y2="721.466" gradientUnits="userSpaceOnUse">
<stop stop-color="white"/>
<stop offset="1" stop-color="white" stop-opacity="0"/>
</linearGradient>
<linearGradient id="paint25_linear_22_1093" x1="1513.57" y1="779.212" x2="-409.009" y2="759.352" gradientUnits="userSpaceOnUse">
<stop stop-color="white"/>
<stop offset="1" stop-color="white" stop-opacity="0"/>
</linearGradient>
<linearGradient id="paint26_linear_22_1093" x1="1513.23" y1="743.079" x2="-408.74" y2="798.937" gradientUnits="userSpaceOnUse">
<stop stop-color="white"/>
<stop offset="1" stop-color="white" stop-opacity="0"/>
</linearGradient>
<linearGradient id="paint27_linear_22_1093" x1="1510.54" y1="694.632" x2="-405.71" y2="852.015" gradientUnits="userSpaceOnUse">
<stop stop-color="white"/>
<stop offset="1" stop-color="white" stop-opacity="0"/>
</linearGradient>
<linearGradient id="paint28_linear_22_1093" x1="1506.7" y1="657.317" x2="-401.284" y2="892.845" gradientUnits="userSpaceOnUse">
<stop stop-color="white"/>
<stop offset="1" stop-color="white" stop-opacity="0"/>
</linearGradient>
<linearGradient id="paint29_linear_22_1093" x1="1501.56" y1="621.474" x2="-395.303" y2="931.995" gradientUnits="userSpaceOnUse">
<stop stop-color="white"/>
<stop offset="1" stop-color="white" stop-opacity="0"/>
</linearGradient>
<linearGradient id="paint30_linear_22_1093" x1="1493.6" y1="579.098" x2="-386.024" y2="978.138" gradientUnits="userSpaceOnUse">
<stop stop-color="white"/>
<stop offset="1" stop-color="white" stop-opacity="0"/>
</linearGradient>
<linearGradient id="paint31_linear_22_1093" x1="1484.17" y1="539.114" x2="-375.042" y2="1021.5" gradientUnits="userSpaceOnUse">
<stop stop-color="white"/>
<stop offset="1" stop-color="white" stop-opacity="0"/>
</linearGradient>
<linearGradient id="paint32_linear_22_1093" x1="1475.17" y1="506.869" x2="-364.588" y2="1056.3" gradientUnits="userSpaceOnUse">
<stop stop-color="white"/>
<stop offset="1" stop-color="white" stop-opacity="0"/>
</linearGradient>
<linearGradient id="paint33_linear_22_1093" x1="1465.64" y1="476.81" x2="-353.527" y2="1088.6" gradientUnits="userSpaceOnUse">
<stop stop-color="white"/>
<stop offset="1" stop-color="white" stop-opacity="0"/>
</linearGradient>
<linearGradient id="paint34_linear_22_1093" x1="1454.39" y1="445.27" x2="-340.536" y2="1122.31" gradientUnits="userSpaceOnUse">
<stop stop-color="white"/>
<stop offset="1" stop-color="white" stop-opacity="0"/>
</linearGradient>
<linearGradient id="paint35_linear_22_1093" x1="1442.22" y1="414.682" x2="-326.553" y2="1154.81" gradientUnits="userSpaceOnUse">
<stop stop-color="white"/>
<stop offset="1" stop-color="white" stop-opacity="0"/>
</linearGradient>
<linearGradient id="paint36_linear_22_1093" x1="1428.02" y1="382.466" x2="-310.304" y2="1188.82" gradientUnits="userSpaceOnUse">
<stop stop-color="white"/>
<stop offset="1" stop-color="white" stop-opacity="0"/>
</linearGradient>
<linearGradient id="paint37_linear_22_1093" x1="1415.14" y1="355.829" x2="-295.664" y2="1216.74" gradientUnits="userSpaceOnUse">
<stop stop-color="white"/>
<stop offset="1" stop-color="white" stop-opacity="0"/>
</linearGradient>
<linearGradient id="paint38_linear_22_1093" x1="1399.54" y1="326.173" x2="-278.028" y2="1247.61" gradientUnits="userSpaceOnUse">
<stop stop-color="white"/>
<stop offset="1" stop-color="white" stop-opacity="0"/>
</linearGradient>
<linearGradient id="paint39_linear_22_1093" x1="1383.25" y1="297.715" x2="-259.74" y2="1276.99" gradientUnits="userSpaceOnUse">
<stop stop-color="white"/>
<stop offset="1" stop-color="white" stop-opacity="0"/>
</linearGradient>
<linearGradient id="paint40_linear_22_1093" x1="1363.44" y1="265.938" x2="-237.661" y2="1309.51" gradientUnits="userSpaceOnUse">
<stop stop-color="white"/>
<stop offset="1" stop-color="white" stop-opacity="0"/>
</linearGradient>
<linearGradient id="paint41_linear_22_1093" x1="1343.94" y1="237.213" x2="-216.125" y2="1338.63" gradientUnits="userSpaceOnUse">
<stop stop-color="white"/>
<stop offset="1" stop-color="white" stop-opacity="0"/>
</linearGradient>
<linearGradient id="paint42_linear_22_1093" x1="1319.92" y1="204.701" x2="-189.827" y2="1371.24" gradientUnits="userSpaceOnUse">
<stop stop-color="white"/>
<stop offset="1" stop-color="white" stop-opacity="0"/>
</linearGradient>
<linearGradient id="paint43_linear_22_1093" x1="1296.4" y1="175.477" x2="-164.32" y2="1400.23" gradientUnits="userSpaceOnUse">
<stop stop-color="white"/>
<stop offset="1" stop-color="white" stop-opacity="0"/>
</linearGradient>
<linearGradient id="paint44_linear_22_1093" x1="1265.72" y1="140.673" x2="-131.436" y2="1434.32" gradientUnits="userSpaceOnUse">
<stop stop-color="white"/>
<stop offset="1" stop-color="white" stop-opacity="0"/>
</linearGradient>
</defs>
</svg>
